<svg width="28" height="28" viewBox="0 0 28 28" fill="none" xmlns="http://www.w3.org/2000/svg">
<g id="Group">
<path id="Vector" d="M3.69618 10.3955L3.6962 10.3955L3.72041 10.3768C5.52571 8.98449 8.13465 9.31725 9.53058 11.1179L15.3118 18.5753C16.7072 20.3752 16.3738 22.9753 14.5693 24.3671L14.5693 24.3671L14.5451 24.3858C14.5451 24.3858 14.545 24.3858 14.545 24.3858C12.7398 25.7782 10.1308 25.4454 8.73489 23.6447L2.95366 16.1873C1.55831 14.3874 1.89165 11.7873 3.69618 10.3955Z" fill="#FF8900" stroke="#FF8900"/>
<path id="Vector_2" d="M14.4901 18.5185L14.4892 18.5192C12.0631 20.3904 9.0356 20.2363 7.68149 18.4896C6.32798 16.7437 6.92795 13.7937 9.36531 11.9139C11.7914 10.0427 14.8189 10.1968 16.173 11.9435C17.5268 13.6898 16.9245 16.6501 14.4901 18.5185Z" fill="#FF8900" stroke="#FF8900"/>
<path id="Vector_3" d="M24.108 15.8032C22.739 16.8591 20.7854 16.6099 19.7268 15.2444C18.6687 13.8796 18.9183 11.9332 20.2866 10.8778C21.6556 9.82193 23.6092 10.0711 24.6678 11.4367C25.7258 12.8014 25.4763 14.7479 24.108 15.8032Z" fill="#FF8900" stroke="#FF8900"/>
<path id="Vector_4" d="M18.2424 8.23702C16.8734 9.29293 14.9198 9.04376 13.8612 7.67821C12.8031 6.31343 13.0527 4.36699 14.421 3.31168C15.79 2.25577 17.7436 2.50494 18.8022 3.87049C19.8602 5.23527 19.6107 7.18171 18.2424 8.23702Z" fill="#FF8900" stroke="#FF8900"/>
<path id="Vector_5" d="M9.07446 6.57825C7.97201 7.42774 6.37363 7.2236 5.52138 6.12426C4.66949 5.02538 4.87369 3.43257 5.9754 2.58287C7.07787 1.73257 8.67689 1.93652 9.52938 3.03617C10.3803 4.13376 10.1799 5.7168 9.07446 6.57825Z" fill="#FF8900" stroke="#FF8900"/>
<path id="Vector_6" d="M22.6982 24.1522C21.5958 25.0017 19.9974 24.7976 19.1452 23.6982C18.2933 22.5994 18.4975 21.0065 19.5992 20.1568C20.7017 19.3065 22.3007 19.5105 23.1532 20.6101C24.004 21.7077 23.8037 23.2908 22.6982 24.1522Z" fill="#FF8900" stroke="#FF8900"/>
</g>
</svg>
