<svg width="218" height="193" viewBox="0 0 218 193" fill="none" xmlns="http://www.w3.org/2000/svg">
<g clip-path="url(#clip0_5_76)">
<path d="M39.9253 -62.7438C99.5521 -113.096 197.624 -66.524 204.735 -63.0346C261.276 -35.2515 322.931 30.2408 310.348 89.2896C293.217 169.685 140.099 230.412 57.0427 165.885C-9.90033 113.874 -20.8846 -11.3941 39.9253 -62.7438Z" fill="#FF8900"/>
<g clip-path="url(#clip1_5_76)">
<path d="M202.392 -86.9141L133.522 48.0529C133.522 48.0529 108.558 31.9941 99.8383 47.0541C91.1184 62.1141 108.156 70.874 108.156 70.874C108.156 70.874 80.6582 85.3321 92.8055 101.336C104.383 116.59 124.425 96.9811 124.425 96.9811C124.425 96.9811 111.055 123.897 132.703 127.807C152.472 131.383 154.803 101.823 154.803 101.823C154.803 101.823 169.496 114.116 179.983 100.228C190.469 86.34 165.97 69.5812 165.97 69.5812L263.546 -46.3398" stroke="white" stroke-width="4" stroke-linecap="round" stroke-linejoin="round"/>
<path d="M128.511 63.6539C132.757 57.2543 140.824 59.1141 144.154 67.2276C153.62 67.1956 157.772 73.8511 153.526 80.2507C149.28 86.6502 134.034 87.6353 131.659 86.0596C129.284 84.484 124.266 70.0534 128.511 63.6539Z" fill="white"/>
<path d="M130.711 107.476C132.312 102.982 136.195 100.422 139.399 101.743C142.602 103.065 143.897 107.788 142.301 112.273C140.705 116.759 136.816 119.328 133.613 118.006C130.409 116.685 129.115 111.962 130.711 107.476Z" fill="white"/>
<path d="M160.191 92.725C158.395 88.3053 159.592 83.8068 162.867 82.6679C166.143 81.5291 170.251 84.1826 172.047 88.6023C173.843 93.0221 172.646 97.5206 169.371 98.6595C166.095 99.7983 161.987 97.1448 160.191 92.725Z" fill="white"/>
<path d="M114.119 62.1575C118.89 62.0943 122.569 59.2433 122.345 55.7825C122.121 52.3216 118.08 49.5681 113.309 49.6314C108.539 49.6946 104.859 52.5456 105.083 56.0065C105.307 59.4673 109.349 62.2208 114.119 62.1575Z" fill="white"/>
<path d="M113.007 93.606C116.525 90.3837 117.375 85.8111 114.912 83.3731C112.449 80.9351 107.594 81.5782 104.082 84.7921C100.564 88.0144 99.7143 92.587 102.177 95.025C104.64 97.4631 109.495 96.82 113.007 93.606Z" fill="white"/>
</g>
</g>
<defs>
<clipPath id="clip0_5_76">
<rect width="312" height="279" fill="white" transform="translate(0 -86)"/>
</clipPath>
<clipPath id="clip1_5_76">
<rect width="100.23" height="223.05" fill="white" transform="translate(152.519 145.275) rotate(-146.437)"/>
</clipPath>
</defs>
</svg>
